<svg width="20" height="20" viewBox="0 0 20 20" fill="none" xmlns="http://www.w3.org/2000/svg">
<path d="M0 14.6667V10.6667H3.75V14.6667H0ZM1.25 12V13.3333H2.5V12H1.25ZM0 9.33333V5.33333H3.75V9.33333H0ZM1.25 6.66667V8H2.5V6.66667H1.25ZM0 4V0H3.75V4H0ZM1.25 1.33333V2.66667H2.5V1.33333H1.25ZM6.25 8V6.66667H17.5V8H6.25ZM15 12V13.3333H6.25V12H15ZM6.25 1.33333H20V2.66667H6.25V1.33333ZM0 20V16H3.75V20H0ZM1.25 17.3333V18.6667H2.5V17.3333H1.25ZM6.25 18.6667V17.3333H17.5V18.6667H6.25Z" fill="#175CD3"/>
</svg>
