<svg width="24" height="24" viewBox="0 0 24 24" fill="none" xmlns="http://www.w3.org/2000/svg">
<g clip-path="url(#clip0_1124_510)">
<path d="M8.02344 18.9395C9.34833 18.9821 10.6739 19.0025 11.9994 19.0005C13.5244 19.0005 14.8409 18.978 15.9759 18.9395C15.8677 19.9183 15.4021 20.8229 14.6684 21.4799C13.9348 22.1369 12.9845 22.5001 11.9997 22.5001C11.0148 22.5001 10.0646 22.1369 9.33093 21.4799C8.59726 20.8229 8.13171 19.9183 8.02344 18.9395Z" fill="#175CD3"/>
<path d="M19.5973 8.4745C19.2598 4.5295 15.9588 1.5 11.9998 1.5C8.03984 1.5 4.73984 4.53 4.40184 8.4745L4.16234 11.2695C4.05532 12.517 3.65697 13.722 2.99934 14.7875L2.26434 15.9795C1.52534 17.176 1.92834 18.4125 3.32234 18.598C4.91634 18.81 7.57834 19 11.9998 19C16.4213 19 19.0828 18.81 20.6773 18.598C22.0713 18.4125 22.4743 17.176 21.7353 15.9795L21.0003 14.7875C20.3425 13.7219 19.9439 12.5167 19.8368 11.269L19.5973 8.4745Z" fill="#8FBFFA" fill-opacity="0.2"/>
<path d="M19.598 8.4745C19.2595 4.5295 15.959 1.5 12 1.5C8.04099 1.5 4.73999 4.53 4.40199 8.4745L4.16249 11.2695C4.05554 12.5168 3.65737 13.7216 2.99999 14.787L2.26399 15.979C1.52549 17.1755 1.92849 18.412 3.32249 18.5975C4.91649 18.81 7.57849 19 12 19C16.4215 19 19.083 18.81 20.6775 18.598C22.0715 18.4125 22.4745 17.176 21.736 15.9795L21 14.7875C20.3425 13.7218 19.9443 12.5167 19.8375 11.269L19.5975 8.474L19.598 8.4745Z" stroke="#175CD3" stroke-width="1.5" stroke-linecap="round" stroke-linejoin="round"/>
<path d="M8.02389 18.939C8.13268 19.9174 8.59841 20.8214 9.33198 21.4779C10.0655 22.1344 11.0154 22.4974 11.9999 22.4974C12.9843 22.4974 13.9342 22.1344 14.6678 21.4779C15.4014 20.8214 15.8671 19.9174 15.9759 18.939M1.50739 8.5C1.42439 7.1665 2.00639 3.9 4.99989 1.5M22.4924 8.5C22.5754 7.1665 21.9934 3.9 18.9999 1.5" stroke="#175CD3" stroke-width="1.5" stroke-linecap="round" stroke-linejoin="round"/>
</g>
<defs>
<clipPath id="clip0_1124_510">
<rect width="24" height="24" fill="white"/>
</clipPath>
</defs>
</svg>
