<svg width="21" height="24" viewBox="0 0 21 24" fill="none" xmlns="http://www.w3.org/2000/svg">
<path fill-rule="evenodd" clip-rule="evenodd" d="M5.35714 0C5.1965 -6.06204e-07 5.03908 0.0451441 4.90286 0.130286L1.47429 2.27314C1.35101 2.35019 1.24935 2.45733 1.17888 2.58448C1.1084 2.71164 1.07143 2.85462 1.07143 3C1.07143 3.14538 1.1084 3.28836 1.17888 3.41552C1.24935 3.54267 1.35101 3.64981 1.47429 3.72686L4.90286 5.86971C5.03908 5.95486 5.1965 6 5.35714 6H16.9286C17.7242 6 18.4873 5.68393 19.0499 5.12132C19.6125 4.55871 19.9286 3.79565 19.9286 3C19.9286 2.20435 19.6125 1.44129 19.0499 0.87868C18.4873 0.31607 17.7242 0 16.9286 0H5.35714ZM1.07143 7.5C0.787268 7.5 0.514746 7.61288 0.313814 7.81381C0.112882 8.01475 0 8.28727 0 8.57143V19.5C0 20.0914 0.48 20.5714 1.07143 20.5714C3.93771 20.5714 6.07029 21.1183 7.48457 21.7611C8.196 22.0834 8.70857 22.4229 9.04457 22.7177C9.348 22.9834 9.43886 23.1514 9.456 23.1857L9.45943 23.1891C9.51652 23.4214 9.6503 23.6294 9.83913 23.7762C10.028 23.9231 10.2608 24.0019 10.5 24C10.7389 24.0015 10.9713 23.9225 11.1598 23.7757C11.3483 23.6289 11.4818 23.4229 11.5389 23.1909L11.5423 23.1857C11.5594 23.1514 11.652 22.9834 11.9554 22.7177C12.2914 22.4229 12.804 22.0834 13.5154 21.7611C14.9297 21.1183 17.0623 20.5714 19.9286 20.5714C20.52 20.5714 21 20.0914 21 19.5V8.57143C21 8.28727 20.8871 8.01475 20.6862 7.81381C20.4853 7.61288 20.2127 7.5 19.9286 7.5C16.7949 7.5 14.3554 8.09657 12.6274 8.88171C11.8747 9.21108 11.1732 9.64697 10.5446 10.176L10.5 10.2154L10.4554 10.176C9.8274 9.64651 9.12652 9.21004 8.37429 8.88C6.64286 8.09657 4.20514 7.5 1.07143 7.5ZM12.6274 19.8103C12.2434 19.9851 11.8914 20.1697 11.5714 20.364V12.2057C11.6177 12.132 11.7257 11.9863 11.9554 11.7874C12.2914 11.4926 12.804 11.1531 13.5154 10.8309C14.748 10.2703 16.524 9.78514 18.8571 9.66686V18.4509C16.2343 18.5691 14.1531 19.1177 12.6274 19.8103ZM9.42857 20.3623V12.2057C9.32052 12.0492 9.19129 11.9084 9.04457 11.7874C8.57217 11.3968 8.04699 11.0747 7.48457 10.8309C6.252 10.2703 4.476 9.78514 2.14286 9.66686V18.4509C4.76571 18.5691 6.84686 19.116 8.37257 19.8086C8.75771 19.9834 9.10971 20.168 9.42857 20.3623Z" fill="white"/>
</svg>
