<svg width="24" height="24" viewBox="0 0 24 24" fill="none" xmlns="http://www.w3.org/2000/svg">
<path d="M18 5V4C18 3.73478 17.8946 3.48043 17.7071 3.29289C17.5196 3.10536 17.2652 3 17 3H8.914C8.6488 3.00006 8.39449 3.10545 8.207 3.293L4.293 7.207C4.10545 7.39449 4.00006 7.64881 4 7.914V20C4 20.2652 4.10536 20.5196 4.29289 20.7071C4.48043 20.8946 4.73478 21 5 21H17C17.2652 21 17.5196 20.8946 17.7071 20.7071C17.8946 20.5196 18 20.2652 18 20V15M9 3V7C9 7.26522 8.89464 7.51957 8.70711 7.70711C8.51957 7.89464 8.26522 8 8 8H4M15.383 8.772L18.128 11.518M19.343 7.612C19.7341 8.00384 19.9538 8.53486 19.9538 9.0885C19.9538 9.64214 19.7341 10.1732 19.343 10.565L12.693 17.211L9 17.95L9.739 14.258L16.385 7.612C16.5789 7.41722 16.8094 7.26267 17.0632 7.15721C17.317 7.05175 17.5892 6.99746 17.864 6.99746C18.1388 6.99746 18.411 7.05175 18.6648 7.15721C18.9186 7.26267 19.1491 7.41722 19.343 7.612Z" stroke="#175CD3" stroke-width="2" stroke-linecap="round" stroke-linejoin="round"/>
</svg>
