<svg width="32" height="32" viewBox="0 0 32 32" fill="none" xmlns="http://www.w3.org/2000/svg">
<path d="M11.8666 12.0666L6.93329 16.9332L4.13329 14.1999L2.66663 15.6666L6.93329 19.9332L13.3333 13.5332L11.8666 12.0666ZM11.8666 3.3999L6.93329 8.26657L4.13329 5.53324L2.66663 6.9999L6.93329 11.2666L13.3333 4.86657L11.8666 3.3999ZM11.8666 20.7332L6.93329 25.5999L4.13329 22.8666L2.66663 24.3332L6.93329 28.5999L13.3333 22.1999L11.8666 20.7332Z" fill="#3F51B5"/>
<path d="M16 14.6667H29.3333V17.3333H16V14.6667ZM16 6H29.3333V8.66667H16V6ZM16 23.3333H29.3333V26H16V23.3333Z" fill="#90CAF9"/>
</svg>
