<svg width="20" height="20" viewBox="0 0 20 20" fill="none" xmlns="http://www.w3.org/2000/svg">
<g clip-path="url(#clip0_1124_505)">
<path d="M19.8787 6.586C19.8194 6.4775 19.7365 6.37829 19.6338 6.293L12.1337 0.293C12.0271 0.210832 11.9031 0.144468 11.7675 0.0969999C11.73 0.0829999 11.69 0.0749999 11.65 0.0639999C11.5454 0.0356297 11.4365 0.0184804 11.3263 0.013C11.3 0.011 11.2762 0 11.25 0H2.5C1.12125 0 0 0.897 0 2V18C0 19.103 1.12125 20 2.5 20H17.5C18.8787 20 20 19.103 20 18V7C20 6.979 19.9862 6.96 19.9837 6.938C19.9769 6.84979 19.9555 6.7627 19.92 6.679C19.9083 6.647 19.8946 6.616 19.8787 6.586ZM15.7325 6H12.5V3.414L15.7325 6ZM2.5 18V2H10V7C10 7.26522 10.1317 7.51957 10.3661 7.70711C10.6005 7.89464 10.9185 8 11.25 8H17.5L17.5025 18H2.5Z" fill="#175CD3"/>
<path d="M6.66602 10.0003H13.3327V11.667H6.66602V10.0003ZM6.66602 13.3337H13.3327V15.0003H6.66602V13.3337ZM6.66602 6.66699H8.33268V8.33366H6.66602V6.66699Z" fill="#175CD3"/>
</g>
<defs>
<clipPath id="clip0_1124_505">
<rect width="20" height="20" fill="white"/>
</clipPath>
</defs>
</svg>
