<svg width="20" height="20" viewBox="0 0 20 20" fill="none" xmlns="http://www.w3.org/2000/svg">
<g clip-path="url(#clip0_1124_499)">
<path fill-rule="evenodd" clip-rule="evenodd" d="M13.636 7.27308C13.636 8.23751 13.2529 9.16243 12.5709 9.84438C11.889 10.5263 10.9641 10.9094 9.99964 10.9094C9.03522 10.9094 8.1103 10.5263 7.42835 9.84438C6.7464 9.16243 6.36328 8.23751 6.36328 7.27308C6.36328 6.30866 6.7464 5.38374 7.42835 4.70178C8.1103 4.01983 9.03522 3.63672 9.99964 3.63672C10.9641 3.63672 11.889 4.01983 12.5709 4.70178C13.2529 5.38374 13.636 6.30866 13.636 7.27308ZM11.8178 7.27308C11.8178 7.75529 11.6263 8.21776 11.2853 8.55873C10.9443 8.89971 10.4819 9.09126 9.99964 9.09126C9.51743 9.09126 9.05497 8.89971 8.714 8.55873C8.37302 8.21776 8.18146 7.75529 8.18146 7.27308C8.18146 6.79087 8.37302 6.32841 8.714 5.98743C9.05497 5.64646 9.51743 5.4549 9.99964 5.4549C10.4819 5.4549 10.9443 5.64646 11.2853 5.98743C11.6263 6.32841 11.8178 6.79087 11.8178 7.27308Z" fill="#175CD3"/>
<path fill-rule="evenodd" clip-rule="evenodd" d="M10 0C4.47727 0 0 4.47727 0 10C0 15.5227 4.47727 20 10 20C15.5227 20 20 15.5227 20 10C20 4.47727 15.5227 0 10 0ZM1.81818 10C1.81818 11.9 2.46636 13.6491 3.55273 15.0382C4.31586 14.0365 5.30014 13.2247 6.42876 12.6661C7.55739 12.1076 8.79982 11.8174 10.0591 11.8182C11.3022 11.8167 12.5292 12.0992 13.6465 12.644C14.7638 13.1888 15.742 13.9815 16.5064 14.9618C17.294 13.9287 17.8244 12.7229 18.0535 11.4442C18.2827 10.1654 18.204 8.85049 17.8241 7.60817C17.4441 6.36585 16.7738 5.23186 15.8686 4.30003C14.9634 3.36821 13.8493 2.66533 12.6185 2.24955C11.3877 1.83378 10.0756 1.71707 8.79078 1.90907C7.50593 2.10107 6.28526 2.59627 5.22979 3.35369C4.17432 4.11111 3.31437 5.10897 2.72112 6.26472C2.12786 7.42047 1.81835 8.70088 1.81818 10ZM10 18.1818C8.12173 18.1849 6.30013 17.5387 4.84364 16.3527C5.42983 15.5133 6.21018 14.8279 7.11825 14.355C8.02633 13.882 9.03523 13.6355 10.0591 13.6364C11.0702 13.6355 12.0668 13.8759 12.9663 14.3376C13.8659 14.7992 14.6422 15.4689 15.2309 16.2909C13.7632 17.5155 11.9115 18.1848 10 18.1818Z" fill="#175CD3"/>
</g>
<defs>
<clipPath id="clip0_1124_499">
<rect width="20" height="20" fill="white"/>
</clipPath>
</defs>
</svg>
