<svg width="65" height="58" viewBox="0 0 65 58" fill="none" xmlns="http://www.w3.org/2000/svg">
<path d="M0.000277456 -4C14.9147 5.44466 28.7081 12.8528 44.654 14.5377C50.2989 15.1339 51.2845 19.3829 49.0464 24.2588C45.3689 32.2705 51.3248 44.1648 64.6251 51.3643C63.7954 55.2453 58.2024 58.5122 54.7572 57.3649C51.8892 51.3787 47.4215 45.0595 42.581 46.7737C32.6807 50.2802 22.4854 51.0258 15.5627 47.2519C24.7465 46.0056 33.4893 43.5639 41.1893 39.7162C27.2781 41.7968 10.8077 41.8505 4.56646 34.8667C17.1935 35.3712 27.4282 34.0901 38.8545 31.2301C23.6355 29.8286 6.90267 27.0459 2.19199 17.7146C13.4212 21.2157 28.48 22.5191 38.6671 22.5901C22.7963 18.5917 1.45134 7.64317 0 -4H0.000277456Z" fill="#2E90FA"/>
</svg>
